<?xml version="1.0" encoding="UTF-8" standalone="no"?>
<!-- Created with Inkscape (http://www.inkscape.org/) -->

<svg
   xmlns:dc="http://purl.org/dc/elements/1.1/"
   xmlns:cc="http://creativecommons.org/ns#"
   xmlns:rdf="http://www.w3.org/1999/02/22-rdf-syntax-ns#"
   xmlns:svg="http://www.w3.org/2000/svg"
   xmlns="http://www.w3.org/2000/svg"
   xmlns:xlink="http://www.w3.org/1999/xlink"
   xmlns:sodipodi="http://sodipodi.sourceforge.net/DTD/sodipodi-0.dtd"
   xmlns:inkscape="http://www.inkscape.org/namespaces/inkscape"
   width="210mm"
   height="297mm"
   viewBox="0 0 210 297"
   version="1.1"
   id="svg8"
   inkscape:version="0.92.5 (2060ec1f9f, 2020-04-08)"
   sodipodi:docname="linksnip.svg"
   inkscape:export-filename="/home/dlowe/code/linksnip/img/linksnip128.png"
   inkscape:export-xdpi="66.330002"
   inkscape:export-ydpi="66.330002">
  <defs
     id="defs2">
    <linearGradient
       inkscape:collect="always"
       id="linearGradient879">
      <stop
         style="stop-color:#00ffff;stop-opacity:1"
         offset="0"
         id="stop875" />
      <stop
         style="stop-color:#0000ff;stop-opacity:1"
         offset="1"
         id="stop877" />
    </linearGradient>
    <radialGradient
       inkscape:collect="always"
       xlink:href="#linearGradient879"
       id="radialGradient885"
       cx="66.057579"
       cy="90.81459"
       fx="66.057579"
       fy="90.81459"
       r="24.50616"
       gradientUnits="userSpaceOnUse"
       gradientTransform="matrix(2.2656157,-2.1519062,2.1888946,2.3044372,-235.80773,18.678987)" />
  </defs>
  <sodipodi:namedview
     id="base"
     pagecolor="#ffffff"
     bordercolor="#666666"
     borderopacity="1.0"
     inkscape:pageopacity="0.0"
     inkscape:pageshadow="2"
     inkscape:zoom="1.4"
     inkscape:cx="237.87279"
     inkscape:cy="701.81011"
     inkscape:document-units="mm"
     inkscape:current-layer="layer1"
     showgrid="false"
     inkscape:window-width="1920"
     inkscape:window-height="1025"
     inkscape:window-x="0"
     inkscape:window-y="27"
     inkscape:window-maximized="1" />
  <metadata
     id="metadata5">
    <rdf:RDF>
      <cc:Work
         rdf:about="">
        <dc:format>image/svg+xml</dc:format>
        <dc:type
           rdf:resource="http://purl.org/dc/dcmitype/StillImage" />
        <dc:title></dc:title>
      </cc:Work>
    </rdf:RDF>
  </metadata>
  <g
     inkscape:label="Layer 1"
     inkscape:groupmode="layer"
     id="layer1">
    <rect
       style="opacity:1;fill:url(#radialGradient885);fill-opacity:1;stroke:#0c0c0c;stroke-width:0.102;stroke-miterlimit:4;stroke-dasharray:none;stroke-opacity:1"
       id="rect815"
       width="48.91032"
       height="48.91032"
       x="80.448128"
       y="69.286362"
       ry="8.8198948" />
    <path
       style="opacity:1;fill:#f2f2f2;fill-opacity:1;stroke:#0c0c0c;stroke-width:0.102;stroke-miterlimit:4;stroke-dasharray:none;stroke-opacity:1"
       d="m 90.97055,109.01098 c 3.213879,1.68251 7.155943,0.44999 8.838448,-2.76389 L 106.007,94.40781 c 1.68251,-3.213879 0.44953,-7.156184 -2.76435,-8.838688 -3.21388,-1.682504 -7.155727,-0.449285 -8.838232,2.764594 L 88.206412,100.173 c -1.682505,3.21388 -0.449741,7.15548 2.764138,8.83798 z m 1.390117,-2.65536 c -2.042394,-1.06922 -2.638659,-3.9312 -1.337324,-6.416981 L 95.81709,90.78174 c 1.301336,-2.48578 3.993048,-3.626466 6.03544,-2.557249 2.04239,1.069218 2.63912,3.931442 1.33778,6.417221 l -4.793742,9.156898 c -1.301335,2.48577 -3.993508,3.62622 -6.035901,2.55701 z"
       id="rect817"
       inkscape:connector-curvature="0" />
    <path
       style="opacity:1;fill:#f2f2f2;fill-opacity:1;stroke:#0c0c0c;stroke-width:0.102;stroke-miterlimit:4;stroke-dasharray:none;stroke-opacity:1"
       d="m 100.87076,96.541024 1.41432,-2.701608 c -0.43512,-0.372352 -0.78064,-0.836496 -0.99865,-1.383749 -0.85316,-2.141661 0.55863,-4.70136 3.16523,-5.73973 l 9.60204,-3.82472 c 2.6066,-1.038376 5.39178,-0.150943 6.24494,1.990718 0.85316,2.141665 -0.55841,4.702052 -3.16501,5.740431 l -9.60182,3.825416 c -0.13804,0.05499 -0.27659,0.101689 -0.41531,0.145973 l -1.58569,3.02895 c 0.49553,-0.07352 0.99118,-0.203263 1.4777,-0.397076 l 12.41469,-4.945596 c 3.37008,-1.342518 5.00288,-5.137154 3.66036,-8.507239 -1.34252,-3.370091 -5.13694,-5.002184 -8.50702,-3.659664 l -12.41469,4.945596 c -3.370084,1.34252 -5.002399,5.136237 -3.659879,8.506324 0.499485,1.253843 1.33873,2.266866 2.368789,2.975974 z"
       id="path858"
       inkscape:connector-curvature="0" />
  </g>
</svg>
